<?xml version="1.0" encoding="utf-8"?>
<!-- Generator: Adobe Illustrator 26.4.1, SVG Export Plug-In . SVG Version: 6.00 Build 0)  -->
<svg version="1.1" id="图层_1" xmlns="http://www.w3.org/2000/svg" xmlns:xlink="http://www.w3.org/1999/xlink" x="0px" y="0px"
	 viewBox="0 0 200 200" style="enable-background:new 0 0 200 200;" xml:space="preserve">
<style type="text/css">
	.st0{fill:#231815;}
</style>
<path class="st0" d="M145.8,163.6H54.2L26.9,37.8l6.1-1.4l26.1,121.1h81.7l26.1-121.1l6.1,1.4L145.8,163.6z"/>
<path class="st0" d="M161.4,75c-6.9,0-10.3-6.1-12.8-10.8c-2.8-4.7-4.4-7.8-7.5-7.8s-5,2.8-7.5,7.8c-2.8,4.7-6.1,10.8-12.8,10.8
	c-6.9,0-10.3-6.1-12.8-10.8c-2.8-4.7-4.4-7.8-7.5-7.8s-5,2.8-7.5,7.8C90.3,68.9,86.9,75,80.3,75c-6.9,0-10.3-6.1-12.8-10.8
	c-2.8-4.7-4.4-7.8-7.5-7.8c-3.1,0-5,2.8-7.5,7.8C49.7,68.9,46.4,75,39.7,75v-6.1c3.1,0,5-2.8,7.5-7.8C50,56.4,53.3,50.3,60,50.3
	c6.9,0,10.3,6.1,12.8,10.8c2.8,4.7,4.4,7.8,7.5,7.8c3.1,0,5-2.8,7.5-7.8c2.8-4.7,6.1-10.8,12.8-10.8c6.9,0,10.3,6.1,12.8,10.8
	c2.8,4.7,4.4,7.8,7.5,7.8s5-2.8,7.5-7.8c2.8-4.7,6.1-10.8,12.8-10.8c6.9,0,10.3,6.1,12.8,10.8c2.8,4.7,4.4,7.8,7.5,7.8V75z"/>
</svg>
